<?xml version="1.0" encoding="UTF-8" standalone="no"?>
<!-- Generator: Adobe Illustrator 16.0.0, SVG Export Plug-In . SVG Version: 6.00 Build 0)  -->

<svg
   version="1.1"
   id="Layer_1"
   x="0px"
   y="0px"
   width="512px"
   height="512px"
   viewBox="0 0 512 512"
   enable-background="new 0 0 512 512"
   xml:space="preserve"
   sodipodi:docname="x.svg"
   inkscape:version="1.2.2 (b0a8486541, 2022-12-01)"
   xmlns:inkscape="http://www.inkscape.org/namespaces/inkscape"
   xmlns:sodipodi="http://sodipodi.sourceforge.net/DTD/sodipodi-0.dtd"
   xmlns="http://www.w3.org/2000/svg"
   xmlns:svg="http://www.w3.org/2000/svg"><defs
   id="defs9" /><sodipodi:namedview
   id="namedview7"
   pagecolor="#ffffff"
   bordercolor="#000000"
   borderopacity="0.25"
   inkscape:showpageshadow="2"
   inkscape:pageopacity="0.0"
   inkscape:pagecheckerboard="0"
   inkscape:deskcolor="#d1d1d1"
   showgrid="false"
   inkscape:zoom="0.4609375"
   inkscape:cx="-136.67797"
   inkscape:cy="257.08475"
   inkscape:window-width="2256"
   inkscape:window-height="1427"
   inkscape:window-x="0"
   inkscape:window-y="0"
   inkscape:window-maximized="1"
   inkscape:current-layer="Layer_1" />
<path
   fill="#FFFFFF"
   d="m 293.751,497.868 c -20.181,20.179 -53.165,19.913 -73.673,-0.595 v 0 C 199.57,476.765 199.305,443.78 219.484,423.601 l 189.999,-190 c 20.178,-20.178 53.164,-19.913 73.672,0.595 v 0 c 20.508,20.509 20.772,53.492 0.595,73.671 z"
   id="path2"
   style="fill:#010101;fill-opacity:1" />
<path
   fill="#FFFFFF"
   d="m 220.249,497.868 c 20.18,20.179 53.164,19.913 73.672,-0.595 v 0 c 20.509,-20.508 20.774,-53.493 0.596,-73.672 l -190,-190 C 84.339,213.423 51.353,213.688 30.846,234.196 v 0 c -20.508,20.509 -20.772,53.492 -0.595,73.671 z"
   id="path4"
   style="fill:#010101;fill-opacity:1" /><path
   fill="#FFFFFF"
   d="m 292.61491,283.52314 c -20.181,20.179 -53.165,19.913 -73.673,-0.595 v 0 c -20.508,-20.508 -20.773,-53.493 -0.594,-73.672 l 189.999,-190 c 20.178,-20.178 53.164,-19.913 73.672,0.595 v 0 c 20.508,20.509 20.772,53.492 0.595,73.671 z"
   id="path2-3"
   style="fill:#010101;fill-opacity:1" /><path
   fill="#FFFFFF"
   d="m 219.11291,283.52314 c 20.18,20.179 53.164,19.913 73.672,-0.595 v 0 c 20.509,-20.508 20.774,-53.493 0.596,-73.672 l -190,-190 c -20.178,-20.178 -53.164,-19.913 -73.671,0.595 v 0 c -20.508,20.509 -20.772,53.492 -0.595,73.671 z"
   id="path4-6"
   style="fill:#010101;fill-opacity:1" />
</svg>
